<?xml version="1.0" encoding="utf-8"?>
<!-- Generator: Adobe Illustrator 19.1.0, SVG Export Plug-In . SVG Version: 6.00 Build 0)  -->
<svg version="1.1" id="Layer_1" xmlns="http://www.w3.org/2000/svg" xmlns:xlink="http://www.w3.org/1999/xlink" x="0px" y="0px"
	 viewBox="0 0 280.9 262.3" style="enable-background:new 0 0 280.9 262.3;" xml:space="preserve">
<style type="text/css">
	.st0{fill:none;stroke:#2D2D38;stroke-width:22;stroke-linecap:round;stroke-linejoin:round;stroke-miterlimit:10;}
	.st1{fill:#FFFFFF;}
</style>
<g>
	<g>
		<path class="st1" d="M165.7,48.6c1.6,0,8.9,4.6,16.7,26.9c0.5,1.6,1.5,4.9,2.2,7.4l0,0.1c1.6,5.6,3.7,12.6,5.8,18.3
			c0.9,2.4,1.9,4.7,2.9,7.3l0.1,0.2c2.6,6.3,5.2,12.7,7,19.9c8.7,34.9,9,49.7,8.5,55.4c-0.2,2.4-0.7,3.8-1,4.4
			c-3.8,8.2-11.7,10.2-23.3,12.4c-1.4,0.3-3,0.5-4.3,0.7c-5.4,0.9-11,1.7-15.8,4.2c-14.6,7.4-28.4,11.1-40.9,11.1
			c-9,0-15.2-2-18.5-3c0,0,0,0-0.1,0c-0.1,0-0.3-0.1-0.4-0.1c-0.2-0.1-0.4-0.1-0.6-0.2c-1.5-0.5-3.1-0.7-4.6-0.7
			c-0.5,0-0.9,0-1.4,0.1c-1.7,0.1-3.4,0.2-5,0.2c-10.8,0-19.3-3.3-25.4-9.7c-5.2-5.5-8.3-13.1-8.7-21.1c-0.3-7.5,1.7-15,5.6-20.5
			c4-5.6,9.6-8.8,16.6-9.4c2.4-0.2,4.7-0.3,7-0.3c1.9,0,3.8,0.1,5.7,0.2c0.1,0,0.2,0,0.3,0c0.4,0,0.7,0,1.1,0c3.3,0,6.5-1,9.2-2.9
			c5.7-4.1,11.3-6,17.3-6c8.5,0,16.4,4,23.2,7.8c2.4,1.3,5,2,7.6,2c2.6,0,5.2-0.6,7.6-1.9c4.7-2.6,7.8-7.4,8.1-12.8
			c0.5-7.9,1.6-27.3,1.7-35.8c0-4.8-2.1-9.3-5.8-12.3c-0.5-0.4-1.2-1-1.8-1.5c0,0,0,0,0,0c-4.9-4-12.2-10.1-18-14.5
			c-2.6-2-3.7-3.9-3.5-6c0.3-3.2,3.8-7.6,9.2-11.6c6.1-4.5,12.9-7.4,15.7-8.2C165.6,48.6,165.6,48.6,165.7,48.6 M165.7,32.9
			c-1.4,0-2.9,0.2-4.3,0.6c-9.1,2.5-34.7,15-36.5,33.5c-0.4,4.4,0.3,12.9,9.7,20c5.5,4.2,12.7,10.1,17.5,14.1
			c0.7,0.6,1.3,1.1,1.9,1.6c0,6.5-0.8,21.4-1.6,34.9c-7.4-4.1-18.1-9.8-30.8-9.8c-9.3,0-18.2,3-26.5,9c0,0,0,0-0.1,0
			c-1.9-0.2-4.3-0.3-7-0.3c-2.4,0-5.2,0.1-8.4,0.4c-25.3,2.3-37.5,25-36.5,46.3c1,22.1,17,45.8,49.8,45.8c2.1,0,4.2-0.1,6.4-0.3
			c0.3,0.1,0.6,0.2,1,0.3c3.9,1.2,11.9,3.8,23.3,3.8h0c15,0,31.2-4.3,48-12.8c2.6-1.3,7-2,11.2-2.7c1.6-0.3,3.2-0.5,4.8-0.8
			c11.4-2.2,27.1-5.1,34.7-21.2c1.2-2.7,2-5.8,2.4-9.6c1.2-11.9-1.8-32.4-8.9-60.7c-2.1-8.3-5.1-15.6-7.7-22.1c-1-2.5-2-4.8-2.8-7
			c-2-5.2-3.9-11.9-5.5-17.3c-1-3.4-1.9-6.3-2.5-8.1C191.3,53.3,181,32.9,165.7,32.9L165.7,32.9z"/>
	</g>
</g>
</svg>
