<?xml version="1.0" encoding="utf-8"?>
<!-- Generator: Adobe Illustrator 19.1.0, SVG Export Plug-In . SVG Version: 6.00 Build 0)  -->
<svg version="1.1" id="Layer_1" xmlns="http://www.w3.org/2000/svg" xmlns:xlink="http://www.w3.org/1999/xlink" x="0px" y="0px"
	 viewBox="0 0 280.9 262.3" style="enable-background:new 0 0 280.9 262.3;" xml:space="preserve">
<style type="text/css">
	.st0{fill:none;stroke:#2D2D38;stroke-width:22;stroke-linecap:round;stroke-linejoin:round;stroke-miterlimit:10;}
	.st1{fill:#FFFFFF;}
</style>
<g>
	<path class="st1" d="M74.5,248.5H54.2c-12.6,0-22.8-10.2-22.8-22.8v-52.8c0-12.6,10.2-22.8,22.8-22.8h20.3
		c12.6,0,22.8,10.2,22.8,22.8v52.8C97.3,238.3,87,248.5,74.5,248.5z M54.2,165.8c-3.9,0-7.1,3.2-7.1,7.1v52.8c0,3.9,3.2,7.1,7.1,7.1
		h20.3c3.9,0,7.1-3.2,7.1-7.1v-52.8c0-3.9-3.2-7.1-7.1-7.1H54.2z"/>
	<path class="st1" d="M149.6,248.5h-20.3c-12.6,0-22.8-10.2-22.8-22.8V108.4c0-12.6,10.2-22.8,22.8-22.8h20.3
		c12.6,0,22.8,10.2,22.8,22.8v117.3C172.4,238.3,162.1,248.5,149.6,248.5z M129.3,101.3c-3.9,0-7.1,3.2-7.1,7.1v117.3
		c0,3.9,3.2,7.1,7.1,7.1h20.3c3.9,0,7.1-3.2,7.1-7.1V108.4c0-3.9-3.2-7.1-7.1-7.1H129.3z"/>
	<path class="st1" d="M224.7,248.5h-20.3c-12.6,0-22.8-10.2-22.8-22.8V36.8c0-12.6,10.2-22.8,22.8-22.8h20.3
		c12.6,0,22.8,10.2,22.8,22.8v188.9C247.5,238.3,237.3,248.5,224.7,248.5z M204.4,29.7c-3.9,0-7.1,3.2-7.1,7.1v188.9
		c0,3.9,3.2,7.1,7.1,7.1h20.3c3.9,0,7.1-3.2,7.1-7.1V36.8c0-3.9-3.2-7.1-7.1-7.1H204.4z"/>
</g>
</svg>
