<?xml version="1.0" encoding="utf-8"?>
<!-- Generator: Adobe Illustrator 19.1.0, SVG Export Plug-In . SVG Version: 6.00 Build 0)  -->
<svg version="1.1" id="Layer_1" xmlns="http://www.w3.org/2000/svg" xmlns:xlink="http://www.w3.org/1999/xlink" x="0px" y="0px"
	 viewBox="0 0 280.9 262.3" style="enable-background:new 0 0 280.9 262.3;" xml:space="preserve">
<style type="text/css">
	.st0{fill:none;stroke:#2D2D38;stroke-width:22;stroke-linecap:round;stroke-linejoin:round;stroke-miterlimit:10;}
	.st1{fill:#FFFFFF;}
</style>
<g>
	<path class="st1" d="M242.9,106.5l0.2,49.1c0,4.9,4,8.8,8.9,8.8l0,0c4.9,0,8.8-4,8.8-8.9l-0.2-49.1c0-4.9-4-8.8-8.9-8.8l0,0
		C246.8,97.6,242.8,101.6,242.9,106.5z"/>
	<path class="st1" d="M218,95.5l0.3,71.4c0,4.9,4,8.8,8.9,8.8h0c4.9,0,8.8-4,8.8-8.9l-0.3-71.4c0-4.9-4-8.8-8.9-8.8h0
		C221.9,86.6,218,90.6,218,95.5z"/>
	<path class="st1" d="M193.1,84.5l0.4,93.7c0,4.9,4,8.8,8.9,8.8l0,0c4.9,0,8.8-4,8.8-8.9l-0.4-93.7c0-4.9-4-8.8-8.9-8.8l0,0
		C197.1,75.6,193.1,79.6,193.1,84.5z"/>
	<path class="st1" d="M29.3,98.7L29.3,98.7c-4.9,0-8.8,4-8.8,8.9l0.2,49.1c0,4.9,4,8.8,8.9,8.8l0,0c4.9,0,8.8-4,8.8-8.9l-0.2-49.1
		C38.1,102.6,34.2,98.6,29.3,98.7z"/>
	<path class="st1" d="M54,87.4L54,87.4c-4.9,0-8.8,4-8.8,8.9l0.3,71.4c0,4.9,4,8.8,8.9,8.8l0,0c4.9,0,8.8-4,8.8-8.9l-0.3-71.4
		C62.9,91.3,58.9,87.4,54,87.4z"/>
	<path class="st1" d="M70,85l0.4,93.7c0,4.9,4,8.8,8.9,8.8h0c4.9,0,8.8-4,8.8-8.9L87.7,85c0-4.9-4-8.8-8.9-8.8l0,0
		C73.9,76.2,69.9,80.1,70,85z"/>
	
		<rect x="94" y="122.7" transform="matrix(1 -4.694930e-03 4.694930e-03 1 -0.6161 0.6617)" class="st1" width="93.3" height="17.7"/>
	<path class="st1" d="M265.4,139.8l3.8,0c4.9,0,8.8-4,8.8-8.9l0,0c0-4.9-4-8.8-8.9-8.8l-3.8,0L265.4,139.8z"/>
	<path class="st1" d="M15.9,123.3l-3.8,0c-4.9,0-8.8,4-8.8,8.9l0,0c0,4.9,4,8.8,8.9,8.8l3.8,0L15.9,123.3z"/>
</g>
</svg>
