<?xml version="1.0" encoding="utf-8"?>
<!-- Generator: Adobe Illustrator 19.1.0, SVG Export Plug-In . SVG Version: 6.00 Build 0)  -->
<svg version="1.1" id="Layer_1" xmlns="http://www.w3.org/2000/svg" xmlns:xlink="http://www.w3.org/1999/xlink" x="0px" y="0px"
	 viewBox="0 0 280.9 262.3" style="enable-background:new 0 0 280.9 262.3;" xml:space="preserve">
<style type="text/css">
	.st0{fill:none;stroke:#2D2D38;stroke-width:22;stroke-linecap:round;stroke-linejoin:round;stroke-miterlimit:10;}
	.st1{fill:#FFFFFF;}
</style>
<g>
	<path class="st1" d="M138.4,250C73,250,19.7,196.7,19.7,131.3S73,12.5,138.4,12.5s118.7,53.3,118.7,118.7S203.9,250,138.4,250z
		 M138.4,28.3c-56.8,0-103,46.2-103,103s46.2,103,103,103s103-46.2,103-103S195.2,28.3,138.4,28.3z"/>
	<path class="st1" d="M187.7,119.6c-2.1-3.8-6.8-5.3-10.7-3.2l-36.9,19.9L83.5,93.5c-3.5-2.6-8.4-1.9-11,1.5
		c-2.6,3.5-1.9,8.4,1.5,11l60.5,45.7c0,0,0,0,0,0l0.1,0.1c0.2,0.2,0.5,0.3,0.7,0.5c0.1,0,0.1,0.1,0.2,0.1c0.6,0.3,1.2,0.6,1.8,0.7
		c0,0,0.1,0,0.1,0c0.3,0.1,0.6,0.1,0.9,0.2c0,0,0.1,0,0.1,0c0.3,0,0.6,0.1,0.9,0.1c0,0,0,0,0,0c0.1,0,0.3,0,0.4,0c0.2,0,0.3,0,0.5,0
		c0.2,0,0.3-0.1,0.5-0.1c0.1,0,0.3,0,0.4-0.1c0.1,0,0.3-0.1,0.4-0.1c0.2-0.1,0.3-0.1,0.5-0.2c0.1,0,0.2-0.1,0.3-0.1
		c0.2-0.1,0.4-0.2,0.6-0.3c0,0,0.1,0,0.1-0.1l41.3-22.3C188.3,128.2,189.8,123.5,187.7,119.6z"/>
</g>
</svg>
